<svg width="1200" height="630" viewBox="0 0 1200 630" xmlns="http://www.w3.org/2000/svg">
  <!-- Background -->
  <rect width="1200" height="630" fill="#f8fafc"/>
  
  <!-- Main container -->
  <rect x="50" y="50" width="1100" height="530" rx="20" fill="white" stroke="#e2e8f0" stroke-width="2"/>
  
  <!-- Logo positioned left -->
  <g transform="translate(150, 180)">
    <!-- Container -->
    <rect x="6" y="10" width="116" height="108" rx="18" fill="none" stroke="#374151" stroke-width="6"/>
    
    <!-- Row 1 -->
    <rect x="16" y="20" width="16" height="17.5" rx="5" fill="#a78bfa"/>
    <rect x="33" y="20" width="26" height="17.5" rx="5" fill="#34d399"/>
    <rect x="61" y="20" width="14" height="17.5" rx="5" fill="#fbbf24"/>
    <rect x="77" y="20" width="34" height="17.5" rx="5" fill="#60a5fa"/>

    <!-- Row 2 -->
    <rect x="16" y="43.5" width="30" height="17.5" rx="5" fill="#f87171"/>
    <rect x="47" y="43.5" width="14" height="17.5" rx="5" fill="#c084fc"/>
    <rect x="62" y="43.5" width="28" height="17.5" rx="5" fill="#34d399"/>
    <rect x="91" y="43.5" width="18" height="17.5" rx="5" fill="#fbbf24"/>

    <!-- Row 3 -->
    <rect x="16" y="67" width="22" height="17.5" rx="5" fill="#60a5fa"/>
    <rect x="39" y="67" width="34" height="17.5" rx="5" fill="#fca5a5"/>
    <rect x="74.5" y="67" width="12" height="17.5" rx="5" fill="#a78bfa"/>
    <rect x="88" y="67" width="22" height="17.5" rx="5" fill="#34d399"/>

    <!-- Row 4 -->
    <rect x="16" y="90.5" width="14" height="17.5" rx="5" fill="#c084fc"/>
    <rect x="31" y="90.5" width="30" height="17.5" rx="5" fill="#60a5fa"/>
    <rect x="62" y="90.5" width="18" height="17.5" rx="5" fill="#f87171"/>
    <rect x="81" y="90.5" width="28" height="17.5" rx="5" fill="#fbbf24"/>
  </g>
  
  <!-- Title -->
  <text x="400" y="220" font-family="Inter, system-ui, sans-serif" font-size="56" font-weight="800" fill="#1f2937">TOKENIZER</text>
  
  <!-- Subtitle -->
  <text x="400" y="280" font-family="Inter, system-ui, sans-serif" font-size="28" font-weight="500" fill="#6b7280">AI Token Counter</text>
  
  <!-- Description -->
  <text x="400" y="330" font-family="Inter, system-ui, sans-serif" font-size="22" font-weight="400" fill="#9ca3af">Count tokens for GPT, Llama, Mistral and more</text>
  <text x="400" y="365" font-family="Inter, system-ui, sans-serif" font-size="22" font-weight="400" fill="#9ca3af">Estimate costs • Check context windows • 100% client-side</text>
  
  <!-- Feature highlights with colorful backgrounds -->
  <g transform="translate(400, 420)">
    <rect x="0" y="0" width="100" height="40" rx="8" fill="#a78bfa"/>
    <text x="50" y="25" font-family="Inter, system-ui, sans-serif" font-size="14" font-weight="600" fill="white" text-anchor="middle">GPT-4</text>
    
    <rect x="110" y="0" width="100" height="40" rx="8" fill="#34d399"/>
    <text x="160" y="25" font-family="Inter, system-ui, sans-serif" font-size="14" font-weight="600" fill="white" text-anchor="middle">Llama</text>
    
    <rect x="220" y="0" width="100" height="40" rx="8" fill="#fbbf24"/>
    <text x="270" y="25" font-family="Inter, system-ui, sans-serif" font-size="14" font-weight="600" fill="white" text-anchor="middle">Mistral</text>
    
    <rect x="330" y="0" width="100" height="40" rx="8" fill="#60a5fa"/>
    <text x="380" y="25" font-family="Inter, system-ui, sans-serif" font-size="14" font-weight="600" fill="white" text-anchor="middle">Qwen</text>
  </g>
  
  <!-- URL -->
  <text x="400" y="520" font-family="JetBrains Mono, monospace" font-size="18" font-weight="500" fill="#374151">nepomuceno.github.io/tokenizer</text>
</svg>
